<svg id="visual" viewBox="0 0 1920 1080" width="1920" height="1080" xmlns="http://www.w3.org/2000/svg" xmlns:xlink="http://www.w3.org/1999/xlink" version="1.1"><path d="M0 146L35.5 169.3C71 192.7 142 239.3 213.2 248.3C284.3 257.3 355.7 228.7 426.8 213.8C498 199 569 198 640 205.3C711 212.7 782 228.3 853.2 235.8C924.3 243.3 995.7 242.7 1066.8 234.5C1138 226.3 1209 210.7 1280 204.3C1351 198 1422 201 1493.2 208.3C1564.3 215.7 1635.7 227.3 1706.8 225.5C1778 223.7 1849 208.3 1884.5 200.7L1920 193L1920 0L1884.5 0C1849 0 1778 0 1706.8 0C1635.7 0 1564.3 0 1493.2 0C1422 0 1351 0 1280 0C1209 0 1138 0 1066.8 0C995.7 0 924.3 0 853.2 0C782 0 711 0 640 0C569 0 498 0 426.8 0C355.7 0 284.3 0 213.2 0C142 0 71 0 35.5 0L0 0Z" fill="#f59e0b"></path><path d="M0 150L35.5 146C71 142 142 134 213.2 129.8C284.3 125.7 355.7 125.3 426.8 121.8C498 118.3 569 111.7 640 114.5C711 117.3 782 129.7 853.2 133.2C924.3 136.7 995.7 131.3 1066.8 137C1138 142.7 1209 159.3 1280 171.3C1351 183.3 1422 190.7 1493.2 178.5C1564.3 166.3 1635.7 134.7 1706.8 121.5C1778 108.3 1849 113.7 1884.5 116.3L1920 119L1920 0L1884.5 0C1849 0 1778 0 1706.8 0C1635.7 0 1564.3 0 1493.2 0C1422 0 1351 0 1280 0C1209 0 1138 0 1066.8 0C995.7 0 924.3 0 853.2 0C782 0 711 0 640 0C569 0 498 0 426.8 0C355.7 0 284.3 0 213.2 0C142 0 71 0 35.5 0L0 0Z" fill="#f36e30"></path><path d="M0 128L35.5 130.7C71 133.3 142 138.7 213.2 130.2C284.3 121.7 355.7 99.3 426.8 95.3C498 91.3 569 105.7 640 109.2C711 112.7 782 105.3 853.2 101.8C924.3 98.3 995.7 98.7 1066.8 106.7C1138 114.7 1209 130.3 1280 124.8C1351 119.3 1422 92.7 1493.2 82.7C1564.3 72.7 1635.7 79.3 1706.8 82.2C1778 85 1849 84 1884.5 83.5L1920 83L1920 0L1884.5 0C1849 0 1778 0 1706.8 0C1635.7 0 1564.3 0 1493.2 0C1422 0 1351 0 1280 0C1209 0 1138 0 1066.8 0C995.7 0 924.3 0 853.2 0C782 0 711 0 640 0C569 0 498 0 426.8 0C355.7 0 284.3 0 213.2 0C142 0 71 0 35.5 0L0 0Z" fill="#e14049"></path><path d="M0 28L35.5 27.3C71 26.7 142 25.3 213.2 28.5C284.3 31.7 355.7 39.3 426.8 52.7C498 66 569 85 640 86.7C711 88.3 782 72.7 853.2 68.3C924.3 64 995.7 71 1066.8 65.8C1138 60.7 1209 43.3 1280 41.7C1351 40 1422 54 1493.2 67.7C1564.3 81.3 1635.7 94.7 1706.8 93C1778 91.3 1849 74.7 1884.5 66.3L1920 58L1920 0L1884.5 0C1849 0 1778 0 1706.8 0C1635.7 0 1564.3 0 1493.2 0C1422 0 1351 0 1280 0C1209 0 1138 0 1066.8 0C995.7 0 924.3 0 853.2 0C782 0 711 0 640 0C569 0 498 0 426.8 0C355.7 0 284.3 0 213.2 0C142 0 71 0 35.5 0L0 0Z" fill="#be185d"></path></svg>