<svg id="visual" viewBox="0 0 1920 1080" width="1920" height="1080" xmlns="http://www.w3.org/2000/svg" xmlns:xlink="http://www.w3.org/1999/xlink" version="1.1"><rect x="0" y="0" width="1920" height="1080" fill="#083344"></rect><defs><linearGradient id="grad1_0" x1="43.8%" y1="0%" x2="100%" y2="100%"><stop offset="14.444444444444446%" stop-color="#083344" stop-opacity="1"></stop><stop offset="85.55555555555554%" stop-color="#083344" stop-opacity="1"></stop></linearGradient></defs><defs><linearGradient id="grad2_0" x1="0%" y1="0%" x2="56.3%" y2="100%"><stop offset="14.444444444444446%" stop-color="#083344" stop-opacity="1"></stop><stop offset="85.55555555555554%" stop-color="#083344" stop-opacity="1"></stop></linearGradient></defs><g transform="translate(1920, 0)"><path d="M0 594C-68.4 571.3 -136.8 548.6 -218.1 526.6C-299.5 504.6 -393.8 483.2 -420 420C-446.3 356.8 -404.6 251.9 -422.2 174.9C-439.9 97.9 -516.9 49 -594 0L0 0Z" fill="#f59e0b"></path></g><g transform="translate(0, 1080)"><path d="M0 -594C67.3 -565.5 134.6 -537.1 213.2 -514.6C291.7 -492.1 381.7 -475.7 420 -420C458.4 -364.3 445.2 -269.4 465.6 -192.9C486 -116.3 540 -58.2 594 0L0 0Z" fill="#f59e0b"></path></g></svg>