<svg id="visual" viewBox="0 0 960 540" width="960" height="540" xmlns="http://www.w3.org/2000/svg" xmlns:xlink="http://www.w3.org/1999/xlink" version="1.1"><path d="M0 101L14.5 107.7C29 114.3 58 127.7 87.2 132.7C116.3 137.7 145.7 134.3 174.8 135.8C204 137.3 233 143.7 262 132.5C291 121.3 320 92.7 349 90.5C378 88.3 407 112.7 436.2 116.5C465.3 120.3 494.7 103.7 523.8 91.7C553 79.7 582 72.3 611 73C640 73.7 669 82.3 698 93.5C727 104.7 756 118.3 785.2 123C814.3 127.7 843.7 123.3 872.8 120.2C902 117 931 115 945.5 114L960 113L960 0L945.5 0C931 0 902 0 872.8 0C843.7 0 814.3 0 785.2 0C756 0 727 0 698 0C669 0 640 0 611 0C582 0 553 0 523.8 0C494.7 0 465.3 0 436.2 0C407 0 378 0 349 0C320 0 291 0 262 0C233 0 204 0 174.8 0C145.7 0 116.3 0 87.2 0C58 0 29 0 14.5 0L0 0Z" fill="#f59e0b"></path><path d="M0 49L14.5 60.7C29 72.3 58 95.7 87.2 99.7C116.3 103.7 145.7 88.3 174.8 79.8C204 71.3 233 69.7 262 66.7C291 63.7 320 59.3 349 65C378 70.7 407 86.3 436.2 96.8C465.3 107.3 494.7 112.7 523.8 114.5C553 116.3 582 114.7 611 108C640 101.3 669 89.7 698 85.3C727 81 756 84 785.2 91.5C814.3 99 843.7 111 872.8 110.2C902 109.3 931 95.7 945.5 88.8L960 82L960 0L945.5 0C931 0 902 0 872.8 0C843.7 0 814.3 0 785.2 0C756 0 727 0 698 0C669 0 640 0 611 0C582 0 553 0 523.8 0C494.7 0 465.3 0 436.2 0C407 0 378 0 349 0C320 0 291 0 262 0C233 0 204 0 174.8 0C145.7 0 116.3 0 87.2 0C58 0 29 0 14.5 0L0 0Z" fill="#f57a28"></path><path d="M0 62L14.5 67.8C29 73.7 58 85.3 87.2 89.7C116.3 94 145.7 91 174.8 87.3C204 83.7 233 79.3 262 75.3C291 71.3 320 67.7 349 67C378 66.3 407 68.7 436.2 69.7C465.3 70.7 494.7 70.3 523.8 64.7C553 59 582 48 611 46C640 44 669 51 698 58.3C727 65.7 756 73.3 785.2 71.2C814.3 69 843.7 57 872.8 50.8C902 44.7 931 44.3 945.5 44.2L960 44L960 0L945.5 0C931 0 902 0 872.8 0C843.7 0 814.3 0 785.2 0C756 0 727 0 698 0C669 0 640 0 611 0C582 0 553 0 523.8 0C494.7 0 465.3 0 436.2 0C407 0 378 0 349 0C320 0 291 0 262 0C233 0 204 0 174.8 0C145.7 0 116.3 0 87.2 0C58 0 29 0 14.5 0L0 0Z" fill="#ec573d"></path><path d="M0 31L14.5 29.5C29 28 58 25 87.2 24.5C116.3 24 145.7 26 174.8 32.7C204 39.3 233 50.7 262 50.2C291 49.7 320 37.3 349 34.2C378 31 407 37 436.2 43.5C465.3 50 494.7 57 523.8 55.3C553 53.7 582 43.3 611 37.5C640 31.7 669 30.3 698 28.2C727 26 756 23 785.2 23.3C814.3 23.7 843.7 27.3 872.8 29.8C902 32.3 931 33.7 945.5 34.3L960 35L960 0L945.5 0C931 0 902 0 872.8 0C843.7 0 814.3 0 785.2 0C756 0 727 0 698 0C669 0 640 0 611 0C582 0 553 0 523.8 0C494.7 0 465.3 0 436.2 0C407 0 378 0 349 0C320 0 291 0 262 0C233 0 204 0 174.8 0C145.7 0 116.3 0 87.2 0C58 0 29 0 14.5 0L0 0Z" fill="#d9354f"></path><path d="M0 47L14.5 40.7C29 34.3 58 21.7 87.2 17.3C116.3 13 145.7 17 174.8 20.3C204 23.7 233 26.3 262 27.3C291 28.3 320 27.7 349 24.5C378 21.3 407 15.7 436.2 18.3C465.3 21 494.7 32 523.8 31.7C553 31.3 582 19.7 611 19.3C640 19 669 30 698 32.5C727 35 756 29 785.2 25.8C814.3 22.7 843.7 22.3 872.8 25.7C902 29 931 36 945.5 39.5L960 43L960 0L945.5 0C931 0 902 0 872.8 0C843.7 0 814.3 0 785.2 0C756 0 727 0 698 0C669 0 640 0 611 0C582 0 553 0 523.8 0C494.7 0 465.3 0 436.2 0C407 0 378 0 349 0C320 0 291 0 262 0C233 0 204 0 174.8 0C145.7 0 116.3 0 87.2 0C58 0 29 0 14.5 0L0 0Z" fill="#be185d"></path></svg>