<svg id="visual" viewBox="0 0 1920 1080" width="1920" height="1080" xmlns="http://www.w3.org/2000/svg" xmlns:xlink="http://www.w3.org/1999/xlink" version="1.1"><path d="M0 878L35.5 881.7C71 885.3 142 892.7 213.2 880.3C284.3 868 355.7 836 426.8 825.7C498 815.3 569 826.7 640 836.5C711 846.3 782 854.7 853.2 861.5C924.3 868.3 995.7 873.7 1066.8 879C1138 884.3 1209 889.7 1280 893.2C1351 896.7 1422 898.3 1493.2 889.8C1564.3 881.3 1635.7 862.7 1706.8 860C1778 857.3 1849 870.7 1884.5 877.3L1920 884L1920 1081L1884.5 1081C1849 1081 1778 1081 1706.8 1081C1635.7 1081 1564.3 1081 1493.2 1081C1422 1081 1351 1081 1280 1081C1209 1081 1138 1081 1066.8 1081C995.7 1081 924.3 1081 853.2 1081C782 1081 711 1081 640 1081C569 1081 498 1081 426.8 1081C355.7 1081 284.3 1081 213.2 1081C142 1081 71 1081 35.5 1081L0 1081Z" fill="#f59e0b"></path><path d="M0 868L35.5 879.2C71 890.3 142 912.7 213.2 916.7C284.3 920.7 355.7 906.3 426.8 905.7C498 905 569 918 640 912.7C711 907.3 782 883.7 853.2 890.3C924.3 897 995.7 934 1066.8 944.3C1138 954.7 1209 938.3 1280 923C1351 907.7 1422 893.3 1493.2 889.5C1564.3 885.7 1635.7 892.3 1706.8 900C1778 907.7 1849 916.3 1884.5 920.7L1920 925L1920 1081L1884.5 1081C1849 1081 1778 1081 1706.8 1081C1635.7 1081 1564.3 1081 1493.2 1081C1422 1081 1351 1081 1280 1081C1209 1081 1138 1081 1066.8 1081C995.7 1081 924.3 1081 853.2 1081C782 1081 711 1081 640 1081C569 1081 498 1081 426.8 1081C355.7 1081 284.3 1081 213.2 1081C142 1081 71 1081 35.5 1081L0 1081Z" fill="#f36e30"></path><path d="M0 945L35.5 945.5C71 946 142 947 213.2 956.3C284.3 965.7 355.7 983.3 426.8 984C498 984.7 569 968.3 640 966.3C711 964.3 782 976.7 853.2 973.3C924.3 970 995.7 951 1066.8 938.5C1138 926 1209 920 1280 923.5C1351 927 1422 940 1493.2 955C1564.3 970 1635.7 987 1706.8 983.5C1778 980 1849 956 1884.5 944L1920 932L1920 1081L1884.5 1081C1849 1081 1778 1081 1706.8 1081C1635.7 1081 1564.3 1081 1493.2 1081C1422 1081 1351 1081 1280 1081C1209 1081 1138 1081 1066.8 1081C995.7 1081 924.3 1081 853.2 1081C782 1081 711 1081 640 1081C569 1081 498 1081 426.8 1081C355.7 1081 284.3 1081 213.2 1081C142 1081 71 1081 35.5 1081L0 1081Z" fill="#e14049"></path><path d="M0 975L35.5 975.3C71 975.7 142 976.3 213.2 989.8C284.3 1003.3 355.7 1029.7 426.8 1039C498 1048.3 569 1040.7 640 1033.8C711 1027 782 1021 853.2 1024.5C924.3 1028 995.7 1041 1066.8 1040C1138 1039 1209 1024 1280 1010.2C1351 996.3 1422 983.7 1493.2 981.2C1564.3 978.7 1635.7 986.3 1706.8 991.3C1778 996.3 1849 998.7 1884.5 999.8L1920 1001L1920 1081L1884.5 1081C1849 1081 1778 1081 1706.8 1081C1635.7 1081 1564.3 1081 1493.2 1081C1422 1081 1351 1081 1280 1081C1209 1081 1138 1081 1066.8 1081C995.7 1081 924.3 1081 853.2 1081C782 1081 711 1081 640 1081C569 1081 498 1081 426.8 1081C355.7 1081 284.3 1081 213.2 1081C142 1081 71 1081 35.5 1081L0 1081Z" fill="#be185d"></path></svg>